<svg xmlns="http://www.w3.org/2000/svg" viewBox="0 0 1397.8 392.9"><defs><style>.cls-1{fill:#fff;}</style></defs><g id="Calque_2" data-name="Calque 2"><g id="Calque_1-2" data-name="Calque 1"><path class="cls-1" d="M1248.4,97.3l3.3,5,7.9-2.8c0,.7.7,1.4,2.2,2.1a52.6,52.6,0,0,1,3.6,5.1c1.2,2,1.8,3.5,1.8,4.7V212.8l-10.5,11.3,26.8,24.7c7.7-3.6,17.2-11.6,28.6-24l-1-.9-.9-1.4a3.5,3.5,0,0,0-1.4-1.7,28.4,28.4,0,0,1-4.5-6.2,39.2,39.2,0,0,1-3.5-7.2V119.8L1323.3,98l3.6.7a11.4,11.4,0,0,1,6.5,4.4,15.4,15.4,0,0,1,5.4,6.5,11.7,11.7,0,0,1,2.2,4.3c.2,0,.5.3.7.7a3.8,3.8,0,0,1,.4,1.3c0,.4.2.5.7.5V225.7c1.4,4.1,4.2,8.9,8.3,14.4a29.5,29.5,0,0,0,13.4,8.7l33.3-28.2-5.8-6.1-7.6,6.1a6.7,6.7,0,0,1-2.6-2.2,11.8,11.8,0,0,0-1.8-2.1l-1-1.3-1.1-1.3a9.6,9.6,0,0,0-.9-2.5c-.4-.5-.8-1.9-1.3-4.3v-97a50.9,50.9,0,0,1,13.4-23.1l.7-.7a5.3,5.3,0,0,0,.7-1.5l-4.7-4.7L1371,92.6l-24.6-25-44.8,40.9a41.1,41.1,0,0,0-7.3-22.2,99.9,99.9,0,0,0-16.6-18.7Zm-61.5,19.1V220.6l-39.8-17.4V99.5Zm-23.8-48.1a126.3,126.3,0,0,1-23.9,18.6,79,79,0,0,1-27.1,10.7v99.2l-2.2,11.9-7.6,11.2,18.8,5.1,46.3,23.8,54.6-28.9V95.4l-11.9-3.2a136.7,136.7,0,0,1-23.9-9.6,109.6,109.6,0,0,1-23.1-15Zm-110.4-18,29-39.1H1060Zm-31.4,41.6,8.3,14.4v115a16.3,16.3,0,0,0,.4,4.4c.4,6.5,3.5,12.5,9,18a19.6,19.6,0,0,0,14.5,5.8l32.2-27.4-5.5-5.5-8.3,6.9a12.1,12.1,0,0,1-6.3-5.6,21.7,21.7,0,0,1-1.6-9.2V107l10.5-13.7-26.4-23.9ZM974.6,6.1a38,38,0,0,0-16.2,8,92.5,92.5,0,0,0-13.1,12.7.7.7,0,0,1-.7-.8,1.6,1.6,0,0,1-1.8-1.8l-1.1-1.1a45.2,45.2,0,0,0-7.7-5.9L929.6,15l-4-1.6a12.8,12.8,0,0,0-4.3-1.1,3.7,3.7,0,0,1-2.7-1.1l-2.2.7A46.4,46.4,0,0,1,932,35.8V194.9q0,15.6-14.1,24.6a126,126,0,0,1,24.6,13,144.9,144.9,0,0,1,20.9,17.8l34.4-30.4-5.4-6.2-6.6,5.1L966.3,204V43.4a113.2,113.2,0,0,1,5.4-20.6c2.2-5.6,6.7-11.3,13.4-17.4H974.6ZM797.1,91.9l44.8,18v42l-35.1-20.3L792.7,91.9ZM842.6,162v35.5l-25.3,22.4-4,2.2c-9.4-13.1-15-26-17-38.7a19.6,19.6,0,0,1-.7-5.1v-5.1a50,50,0,0,1,2.4-15.9c1.5-4.8,4.5-10.1,8.8-15.9ZM826.4,68.4a54.3,54.3,0,0,1-14.9,10.7,60.7,60.7,0,0,1-17,5.5h-.7l-1.4.6h-6.9c-.5,0-.7-.1-.7-.3h-2.2c-.5,0-.8-.4-1.1-1.1l17.7,50.6q-22.8,18.5-30.7,47.8c-1.9,7.2-2.9,10.9-2.9,11.2v.7a3.6,3.6,0,0,0-.3,1.1v3.6a2.4,2.4,0,0,0-.4,1.1v1.8a49.4,49.4,0,0,0,8.1,26.9,57.5,57.5,0,0,0,21.2,20.1l47.7-41.2v2.2a1.2,1.2,0,0,0,.4,1v1.8c0,.5.1.8.3.8v2.5c0,.7.5,3,1.3,6.9a41.5,41.5,0,0,0,2.4,8.3c.9,3.6,3.2,7.8,6.8,12.6a13.3,13.3,0,0,0,10.5,5.1h2.2l31.4-27.5-5.4-4.7-6.5,4.7a.3.3,0,0,1-.3-.3h-.4c-.5,0-.7-.3-.7-.8a25.1,25.1,0,0,1-3.6-2.9,35.2,35.2,0,0,1-2.6-3.6V213a3,3,0,0,1-.3-1.1v-1.1l-.6-1a14.7,14.7,0,0,1-.5-1.9L877,106c2.6-6.3,4.6-11,6-14a44.8,44.8,0,0,1,3.4-6.7l4-6.8-1.5.7h-1.1l-1,.4h-1.1l-1.1.3a12.8,12.8,0,0,0-5.3,2.9,28,28,0,0,0-3.8,3.6l-.7.8v-.4L826.4,67.6Zm-162-6.9L600,110.7V35.8Zm-20.3,47h3.2a13.4,13.4,0,0,0,3.3.4c3.4.4,5.5.7,6.5.7a72,72,0,0,1,29.5,12.1q13.9,9.6,16.5,25.5c-7,7-17.4,11.8-31.2,14.5h-1.8l-1.8.3H660a48.7,48.7,0,0,1-5.1-1.1c-4.8-1.2-9.8-2.6-15.1-4.3-6.3-3.4-10.9-6.5-13.8-9.4V112.8a27.1,27.1,0,0,1,6.2-2.9l3.2-1a5.7,5.7,0,0,0,3.6-1.1Zm61.1,61.1a9.5,9.5,0,0,0-.3,2.5v2.2a9,9,0,0,0-.6,2.7,37.2,37.2,0,0,1-1.1,5.1c-.6,2.3-1,4-1.2,5.2a63.6,63.6,0,0,1-4.7,9.1,86.9,86.9,0,0,0-11.6-4c-7-1.9-11.2-2.9-12.5-2.9a52.7,52.7,0,0,1-7-.7,11.4,11.4,0,0,1-3.7-.4h-7.6a15.5,15.5,0,0,1-4.3.4l-7.9,1.1a54.6,54.6,0,0,0-8.7,2l-4,1.2-4,1.1V161.3a12.3,12.3,0,0,1,3.4,1.8,2.7,2.7,0,0,0,1.7.7,2.5,2.5,0,0,1,1.4.4c.5.2.7.5.7.7,8.7,2.9,13.5,4.4,14.5,4.5l3.8.8a17.3,17.3,0,0,1,3.4.9c3.4.4,5.8.7,7.3.7,13.5,0,27.8-4.7,43-14.1ZM559.8,187.7l-4.7,8.7a109,109,0,0,1-12.4-24.6,133.4,133.4,0,0,1-5.7-26.1v-2.5a11.2,11.2,0,0,1-.3-2.2v-5a74.7,74.7,0,0,1,1.1-12c.7-6.2,1.2-10.3,1.6-12.3a72.4,72.4,0,0,1,2.4-8.6c.9-2.7,1.9-5.9,2.8-9.8l15.2-23.1Zm100.6,5.8h2.1l2.2.3h2.5c.3.3,1.1.4,2.6.4,6.7.7,14.6,3.5,23.5,8.3V205a8.1,8.1,0,0,0-.4,2.9,7.9,7.9,0,0,1-1.8,4.4,43.3,43.3,0,0,1-6,5.2,35.2,35.2,0,0,1-3.4,2.4l-3.2,2.5A100.5,100.5,0,0,1,654,235.8a60.3,60.3,0,0,1-28,4V204.7c11.8-6,20.9-10,27.1-11.9Zm-43.8,47q-35.9-5.1-55.3-33.6c1.9-1.7,4.8-4.3,8.7-7.6s6.7-5.8,8.6-7.3c8.2-8.2,13.3-13.6,15.2-16.2a32,32,0,0,0,4.7-10,50.5,50.5,0,0,0,2.2-12.1,6.6,6.6,0,0,1,.4-2.9v-2.9a11.2,11.2,0,0,1,.3-2.9v-8.3a6.7,6.7,0,0,1-.3-1.8v-4.4a6.8,6.8,0,0,1-.4-2.1V124l15.9-6.8ZM627.8,2.9c-15.7,10.1-31.3,21.3-47,33.6-12.3,9.6-26.8,22.4-43.4,38.2-22.4,21.5-35.1,46.6-38,75.5v2.2a9.5,9.5,0,0,0-.3,2.5V165c0,.5.2,2.3.7,5.5,1.7,10.3,3.5,18.2,5.4,23.8,8.5,23.1,21.8,39.2,40.2,48.4a84.6,84.6,0,0,0,17.3,5.8c12.3,2.8,21.1,4.3,26.4,4.3a14.5,14.5,0,0,1,4,.4h8a77.6,77.6,0,0,1,11.9-1.1c26-2.9,50.3-12.1,72.7-27.6s38-34.9,46.6-58c0-.5.6-3.7,1.8-9.8a15.5,15.5,0,0,1,.4-3.2,18.7,18.7,0,0,1,.7-5.8v-2.9q0-27-18.2-50.3t-47.6-28l55.3-44.1h-1.8c-.2.3-.8.4-1.8.4H715a4.8,4.8,0,0,1-2.2.3h-3.6c-4.8,0-8.5-.1-10.9-.3l-10.8-1.1a199.3,199.3,0,0,1-43.4-10.5c-.3,0-.6-.2-1.1-.7-2.2-2.2-3.7-3.4-4.7-3.6s-.2-.6-.7-.9a2.4,2.4,0,0,0-1.1-.6c.7,0,0-.3-2.2-1.1l-1.2-.7a5.9,5.9,0,0,0-1.7-.4,4.1,4.1,0,0,1-2.9-1h-.7ZM314.6,132.4c-1.7,1.6-3.7,3.5-6.1,5.6a43.4,43.4,0,0,1-6.9,4.8l-2.1,1.9-1.7,1.2-.9.7a4.8,4.8,0,0,1-1.1.8l-.9.7a3.4,3.4,0,0,1-1.2.9l-5.5,4.3c-1.9,1.7-3.6,2.7-5,2.9V99.5ZM298.4,68.3a279.8,279.8,0,0,1-23.2,17.4A121.3,121.3,0,0,1,249.5,99V199.7c0,10.9-3.9,20.2-11.9,28.2,3.6.5,6,.9,7.1,1.4a12.3,12.3,0,0,0,3.4,1.1l3.4.7a10.3,10.3,0,0,0,2.7.4l3.3,1.1a18.3,18.3,0,0,1,6.7,2.3l3.8,2.2a5.9,5.9,0,0,1,1.8,1.3l1.1,1a7.1,7.1,0,0,0,2.2,1.8c5,3.6,7.8,5.5,8.4,5.6l4.2,1.1a21,21,0,0,0,5.1.9h1.4l48.5-38-5.1-6.8-22.4,16.6-30-14.4V170.5L345.4,116l-47-48.4ZM181.4,1.6q1.2.1,1.2.9a3.8,3.8,0,0,1,3.3,2.9,13.3,13.3,0,0,1-2.9,4,4.8,4.8,0,0,0-1.5,1.1,5.9,5.9,0,0,1-2.1,1.4c-17.4,1.2-27.1,9.2-29.3,23.9l3.2,76.3c.5,12.3-1.8,25.3-6.8,39.1a80.5,80.5,0,0,1-21,31.8l-30,27.8c4.6-1.2,10.2-2.6,16.8-4.1s14.3-3.2,23-4.9l7.2-.5c2.2-.2,4-.2,5.4-.2a123.1,123.1,0,0,1,14.1.7,110.4,110.4,0,0,1,15.2,2.9,20.8,20.8,0,0,0,3.6,1.4l5.1,1.5,1.8.5a12.9,12.9,0,0,1,2.9.9,9.9,9.9,0,0,0,4.3,1.8,14.7,14.7,0,0,0,2.4,1.8l3.4,2.6,5.4,4.3h.8c0,.5.4.9,1.4,1.3a9.2,9.2,0,0,0,2.5.5l2.2-1.4h.4a2.4,2.4,0,0,0,1.1-.4l.5-.7.5-.7,1.5-1.5c1.4-1.9,2.3-3,2.5-3.2a1.2,1.2,0,0,1,.6-.9,2.1,2.1,0,0,0,.5-.9l7.2,5-42.6,40.5q-19.2-19.1-57.5-24.6a13.1,13.1,0,0,1-3.7-.3h-3.6a7.3,7.3,0,0,1-3.2-.4h-3.6l-5.1.2-7.2.5a27.4,27.4,0,0,1-5.1.6,50.5,50.5,0,0,0-7.2.9q-10.2,1-29.7,7.2l-15.7,5.4a90.5,90.5,0,0,0-11.4,5.1l-5.4-2.9,34.3-34.3c1-1.7,1.9-3.5,2.9-5.5l1.1-2.5a35.6,35.6,0,0,0,1.1-3.6,16,16,0,0,0,1.4-4,11,11,0,0,0,.4-2.5c.2-1.7.4-3.1.5-4.2s.2-1.9.2-2.3v-1.8a6.2,6.2,0,0,1-.4-2.2c-.4-2.4-.7-3.9-.7-4.4-.9-2.6-1.4-4-1.2-4.1s-.3-.7-1.3-1.6a11.4,11.4,0,0,1-1.6-2.2,26.9,26.9,0,0,0-2.4-3.3,42.7,42.7,0,0,0-11.2-7.2L47.2,162l-3.8-1.4a18,18,0,0,0-3.3-.9,13.4,13.4,0,0,0-3.6-.6c1.5-2.2,4-4,7.6-5.4a30.8,30.8,0,0,1,10.1-2.2h2.9a1.4,1.4,0,0,0,1.1.4h4l3.3.7H68v-5.4c0-4.6-2.5-8.9-7.6-13s-11.9-8-16.3-9.4q-.3-.5-7.2-1.5l-3.8-.5-2.4-.2-3.9-.7-2.2.7a29.2,29.2,0,0,1,13.7-11.9c3.6-1.7,9.8-2.9,18.5-3.7l8.3-.7v-1.1a2.1,2.1,0,0,1-.4-1.4V102a9.2,9.2,0,0,1-.7-2.2,18.9,18.9,0,0,1-.3-2.9V93.3q0-36.4,28.2-64.7A52.3,52.3,0,0,1,87,30.9l-4.5,1.7-9.8,3.2a31.6,31.6,0,0,1-6.5,1.1,43,43,0,0,1-6.5.3H57.9a1.6,1.6,0,0,1-1.1-.3H53.5a1.4,1.4,0,0,1-1.1-.4h-.7a8.4,8.4,0,0,1-4.1-.7,12.5,12.5,0,0,0-3.1-1.1,10.5,10.5,0,0,0-5.4-1.8l-5.5-1.1a10.3,10.3,0,0,1-3.2-.7H28.9a5.2,5.2,0,0,1-2.1-.4H19.9c-.3.3-1,.4-2.2.4H17l-4,4a1.9,1.9,0,0,0-.7,1.4c0,.3-.5.9-1.4,1.8a12.4,12.4,0,0,1-2.4,3.1,32.3,32.3,0,0,0-3.4,4.2H4.7a1.1,1.1,0,0,1-.7.3H3.6A2.8,2.8,0,0,1,1.4,47H.7L0,45.6V44.1c0-9.9,3.9-18.7,11.6-26.4S28.2,4.8,38.3,2.9l5.5-1.1a6.6,6.6,0,0,0,2.9-.4h2.5L87.5,11.9A1.4,1.4,0,0,0,89,13h2.1c0,.3.3.4.8.4h1.4l2.7-.2,4.9-.5a21.4,21.4,0,0,0,7.6-2c3.1-1.4,7.8-3.2,14.1-5.6a8.7,8.7,0,0,0,4-1.5l.3-.4a1.3,1.3,0,0,0,.8-.3l1.4,1.8L106.7,30q-.7,2.3-1.5,5.4c-.4,2.2-1,4.9-1.8,8a112.5,112.5,0,0,1-2.1,12.3c-.3,3.1-.5,6.3-.8,9.6s-.3,6.4-.3,9.6c0,11.5.3,19.9,1.1,24.9,0,1.7,0,3.6.1,5.8s.3,4.6.6,7.2.4,6,.5,7.8.2,3.4.2,4.9.1,2.8.2,4,.2,2.6.2,4.3v22.4A222.5,222.5,0,0,1,89,191.7a260.1,260.1,0,0,1-19.6,31.1v.3a1.3,1.3,0,0,0-.3.8v1.4a.9.9,0,0,0-.4.7v1.1q43.5-30,51.4-84.3v-2.1a2.8,2.8,0,0,1,.3-1.5v-6.1a87,87,0,0,0-1.1-15.9c-.4-7.3-1-13.6-1.6-19.2s-1.3-10.2-2-14.1-.4-7.2-.5-10-.2-4.9-.2-6.6V63.6a14.7,14.7,0,0,1,.4-3.6,80.3,80.3,0,0,1,12.3-39A53.4,53.4,0,0,1,148.3,6.1Q162.4.7,173.2.7h5.5V0a4.3,4.3,0,0,0,2.7,1.6"/><path class="cls-1" d="M1378,333.5c4.3,0,6.2,2.1,6.2,7v6.8c0,5.4-2.8,7.2-7.3,7.2h-4.8v-21Zm19.8,58.6c-1.2-2.5-1.4-4.9-1.4-8.3V373.3c0-7.2-1.9-12.2-8-14.5v-.2c5.4-2.2,7.9-6.7,7.9-13.8v-5.4c0-10.5-5.4-15.7-18-15.7h-18.4v68.4h12.2V364.3h4.2c5.5,0,8,2.3,8,8.7v10.7c0,5.6.4,6.7,1.1,8.4Zm-77.5-58.6h21v-9.8h-33.2v68.4h33.2v-9.7h-21V362.3H1337v-9.8h-16.7Zm-44.2,58.6h12.1V323.7h-12.1Zm-30-25.5v9.8c0,4.9-2.5,6.7-6.3,6.7s-6.3-1.8-6.3-6.7v-37c0-4.9,2.4-6.7,6.3-6.7s6.3,1.8,6.3,6.7v7.4h11.5v-6.7c0-10.9-6.2-17.2-18.2-17.2s-18.1,6.3-18.1,17.2v35.6c0,11,6.2,17.2,18.1,17.2s18.2-6.2,18.2-17.2v-9.1Zm-62.4-30.8h.2l5.7,34.6h-11.7Zm9.6-12.1h-17.8l-12.4,68.4h11.2l2.1-12.4h14.9l2.1,12.4h12.3Zm-75.6,68.4h32.2v-9.7h-20V323.7h-12.2Zm-35.9-28.3h5.5v12.6c0,4.9-2.4,6.7-6.3,6.7s-6.3-1.8-6.3-6.7v-37c0-4.9,2.4-6.7,6.3-6.7s6.3,1.8,6.3,6.7v7.4h11.5v-6.7c0-10.9-6.2-17.2-18.1-17.2s-18.2,6.3-18.2,17.2v35.6c0,11,6.2,17.2,18.2,17.2s18.1-6.2,18.1-17.2V354h-17Zm-88-1h22.1V353H993.8Zm-67.3-29.3h21.1v-9.8H914.4v68.4h33.2v-9.7H926.5V362.3h16.7v-9.8H926.5Zm-44.2,58.6h12.1V323.7H882.3Zm-37.5-58.6c4.3,0,6.2,2.1,6.2,7v6.8c0,5.4-2.8,7.2-7.3,7.2h-4.8v-21Zm19.8,58.6c-1.2-2.5-1.4-4.9-1.4-8.3V373.3c0-7.2-1.9-12.2-8-14.5v-.2c5.4-2.2,7.9-6.7,7.9-13.8v-5.4c0-10.5-5.4-15.7-18-15.7H826.7v68.4h12.2V364.3h4.2c5.5,0,8,2.3,8,8.7v10.7c0,5.6.4,6.7,1.1,8.4Zm-77.5-58.6h21v-9.8H774.9v68.4h33.2v-9.7h-21V362.3h16.7v-9.8H787.1Zm-47,0c3.9,0,6,1.5,6,6.4v10.3c0,4.9-2.1,6.4-6,6.4h-5.8V333.5Zm0-9.8H722.2v68.4h12.1V366.4h5.8c12.2,0,18.1-5.9,18.1-16.9v-8.9c0-10.9-5.9-16.9-18.1-16.9m-58.2-3.6,4.9-5.4,4.9,5.4h10.4l-9.8-10.9h-11l-9.8,10.9Zm.7,13.4h21v-9.8H670.4v68.4h33.2v-9.7h-21V362.3h16.7v-9.8H682.6Zm-49.7,0c4.3,0,6.2,2.1,6.2,7v6.8c0,5.4-2.8,7.2-7.3,7.2H627v-21Zm19.8,58.6c-1.2-2.5-1.3-4.9-1.3-8.3V373.3c0-7.2-2-12.2-8.1-14.5v-.2c5.4-2.2,8-6.7,8-13.8v-5.4c0-10.5-5.5-15.7-18.1-15.7H614.8v68.4H627V364.3h4.2c5.6,0,8,2.3,8,8.7v10.7c0,5.6.4,6.7,1.1,8.4Zm-67.8-25.5v9.8c0,4.9-2.5,6.7-6.3,6.7s-6.3-1.8-6.3-6.7v-37c0-4.9,2.4-6.7,6.3-6.7s6.3,1.8,6.3,6.7v7.4h11.5v-6.7c0-10.9-6.2-17.2-18.2-17.2s-18.1,6.3-18.1,17.2v35.6c0,11,6.2,17.2,18.1,17.2s18.2-6.2,18.2-17.2v-9.1Zm-93.5-3.8h22.1V353H491.4Zm-67.3-29.3h21v-9.8H411.9v68.4h33.2v-9.7h-21V362.3h16.7v-9.8H424.1Zm-44.3,58.6H392V323.7H379.8Zm-37.5-58.6c4.3,0,6.2,2.1,6.2,7v6.8c0,5.4-2.7,7.2-7.3,7.2h-4.7v-21Zm19.8,58.6c-1.2-2.5-1.3-4.9-1.3-8.3V373.3c0-7.2-2-12.2-8.1-14.5v-.2c5.5-2.2,8-6.7,8-13.8v-5.4c0-10.5-5.4-15.7-18-15.7H324.3v68.4h12.2V364.3h4.2c5.5,0,7.9,2.3,7.9,8.7v10.7c0,5.6.5,6.7,1.1,8.4Zm-77.4-58.6h21v-9.8H272.5v68.4h33.2v-9.7h-21V362.3h16.7v-9.8H284.7Zm-66.2,6.6c0,7.8,3.2,13.5,13.4,21.4,8,6.2,10.4,9.9,10.4,14.9s-2.4,6.7-6.3,6.7-6.3-1.8-6.3-6.7v-4.9H218.2v4.2c0,11,6.2,17.2,18.1,17.2s18.2-6.2,18.2-17.2c0-7.8-3.2-13.5-13.4-21.4-8-6.2-10.4-9.9-10.4-14.9s2.2-6.7,6.1-6.7,6.1,1.8,6.1,6.7v2.9h11.5v-2.2c0-10.9-6.1-17.2-18-17.2s-17.9,6.3-17.9,17.2m-52.4,0c0,7.8,3.2,13.5,13.4,21.4,7.9,6.2,10.4,9.9,10.4,14.9s-2.5,6.7-6.3,6.7-6.3-1.8-6.3-6.7v-4.9H165.7v4.2c0,11,6.2,17.2,18.2,17.2s18.1-6.2,18.1-17.2c0-7.8-3.2-13.5-13.4-21.4-7.9-6.2-10.4-9.9-10.4-14.9s2.3-6.7,6.1-6.7,6.1,1.8,6.1,6.7v2.9h11.5v-2.2c0-10.9-6.1-17.2-17.9-17.2s-17.9,6.3-17.9,17.2m-37.2-4.3h.2l5.8,34.6H123.1Zm9.6-12.1H120.7l-12.4,68.4h11.2l2.1-12.4h14.9l2.1,12.4h12.3ZM74,333.5c4.3,0,6.2,2.1,6.2,7v6.8c0,5.4-2.7,7.2-7.3,7.2H68.2v-21Zm19.8,58.6c-1.2-2.5-1.3-4.9-1.3-8.3V373.3c0-7.2-2-12.2-8.1-14.5v-.2c5.4-2.2,8-6.7,8-13.8v-5.4c0-10.5-5.4-15.7-18-15.7H56v68.4H68.2V364.3h4.2c5.5,0,7.9,2.3,7.9,8.7v10.7c0,5.6.5,6.7,1.1,8.4ZM18,333.5c4.4,0,6.2,2.1,6.2,7v3.8c0,5.5-2.7,7.3-7.3,7.3H12.2V333.5Zm-.4,27.8c5.5,0,7.8,2,7.8,8.4v5.9c0,5.1-2.2,6.8-6.3,6.8H12.2V361.3Zm.8-37.6H0v68.4H19.1c12.2,0,18.5-5.6,18.5-16.2v-5.6c0-7.2-2.5-12.3-9.1-14.5v-.2c5.5-2.3,7.9-6.7,7.9-13.7v-2.5c0-10.5-5.4-15.7-18-15.7"/></g></g></svg>