<?xml version="1.0" encoding="UTF-8"?><svg id="Calque_2" xmlns="http://www.w3.org/2000/svg" viewBox="0 0 34.54 34.54"><defs><style>.cls-1{fill:#fff;}</style></defs><g id="Calque_1-2"><path class="cls-1" d="m6.67,33.62V.92c0-.55-.37-.92-.92-.92s-.92.37-.92.92v32.7c0,.55.37.92.92.92s.92-.37.92-.92Z"/><path class="cls-1" d="m.92,6.67h32.7c.55,0,.92-.37.92-.92s-.37-.92-.92-.92H.92c-.55,0-.92.37-.92.92s.37.92.92.92Z"/><path class="cls-1" d="m27.87.92v32.7c0,.55.37.92.92.92s.92-.37.92-.92V.92C29.72.37,29.35,0,28.8,0s-.92.37-.92.92Z"/><path class="cls-1" d="m33.62,27.87H.92c-.55,0-.92.37-.92.92s.37.92.92.92h32.7c.55,0,.92-.37.92-.92s-.37-.92-.92-.92Z"/><path class="cls-1" d="m17.27,6.83c5.76,0,10.45,4.69,10.45,10.45s-4.69,10.45-10.45,10.45-10.45-4.69-10.45-10.45,4.69-10.45,10.45-10.45m0-2c-6.87,0-12.45,5.57-12.45,12.45s5.57,12.45,12.45,12.45,12.45-5.57,12.45-12.45-5.57-12.45-12.45-12.45h0Z"/><path class="cls-1" d="m23.23,21.77l.04.2-.1.16-.16.07-.19.03h-.2l-.33-.03-.22-.02h-.65l-.9.06-.19-.06-.09-.12-.07-.16-.45-1.22-.1-.15-.13-.03h-.18s-.87-.07-.87-.07h-.23l-1.09-.03h-.87s-.22-.01-.22-.01h-.22s-.67.01-.67.01l-.19.03-.12.07-.09.17-.33.99-.09.23-.16.19-.22.09h-.23s-.84-.06-.84-.06h-.23l-.9.06-.19.02-.17-.09-.12-.16v-.19s.04-.12.04-.12l.09-.23.2-.45.09-.22.36-.81.09-.2.38-.81.09-.22.33-.78.09-.22.39-.81.09-.2.52-1.19.41-.87.1-.23.32-.65.1-.23.28-.67.09-.22.26-.6.07-.16.14-.09.22-.04.67-.03h1.13l.67.02.25.04.16.12.07.19.2.57.09.22.36.68.09.2.32.71.09.2.26.74.09.2.32.7.09.2.32.71.09.2.29.73.09.2.45.9.35.68.1.2.39.92.29.73Zm-4.85-4.1l-.06-.19-.32-.99-.07-.22-.29-.86-.07-.19-.15-.1-.19-.04-.16.04-.15.14-.39.99-.09.22-.38.97-.04.22.04.17.16.07.2.03h.91l.68.04.19-.06.12-.12.04-.15Z"/></g></svg>