<?xml version="1.0" encoding="UTF-8"?><svg id="Calque_2" xmlns="http://www.w3.org/2000/svg" viewBox="0 0 36.32 36.32"><defs><style>.cls-1{fill:#fff;}</style></defs><g id="Calque_1-2"><path class="cls-1" d="m7.79,15.59c.47,0,.85-.38.85-.85s-.38-.85-.85-.85c-3.36,0-6.09-2.73-6.09-6.09S4.43,1.7,7.79,1.7s6.09,2.73,6.09,6.09c0,.47.38.85.85.85s.85-.38.85-.85C15.59,3.5,12.09,0,7.79,0S0,3.5,0,7.79s3.5,7.79,7.79,7.79Z"/><path class="cls-1" d="m21.58,8.64c.47,0,.85-.38.85-.85,0-3.36,2.73-6.09,6.09-6.09s6.09,2.73,6.09,6.09-2.73,6.09-6.09,6.09c-.47,0-.85.38-.85.85s.38.85.85.85c4.3,0,7.79-3.5,7.79-7.79s-3.5-7.79-7.79-7.79-7.79,3.5-7.79,7.79c0,.47.38.85.85.85Z"/><path class="cls-1" d="m14.74,27.68c-.47,0-.85.38-.85.85,0,3.36-2.73,6.09-6.09,6.09s-6.09-2.73-6.09-6.09,2.73-6.09,6.09-6.09c.47,0,.85-.38.85-.85s-.38-.85-.85-.85c-4.3,0-7.79,3.5-7.79,7.79s3.5,7.79,7.79,7.79,7.79-3.5,7.79-7.79c0-.47-.38-.85-.85-.85Z"/><path class="cls-1" d="m28.53,20.73c-.47,0-.85.38-.85.85s.38.85.85.85c3.36,0,6.09,2.73,6.09,6.09s-2.73,6.09-6.09,6.09-6.09-2.73-6.09-6.09c0-.47-.38-.85-.85-.85s-.85.38-.85.85c0,4.3,3.5,7.79,7.79,7.79s7.79-3.5,7.79-7.79-3.5-7.79-7.79-7.79Z"/><path class="cls-1" d="m22.28,23.72l4.86,4.86-.73.73c-.4.4-.4.93,0,1.33.4.4.93.4,1.33,0l2.9-2.9c.4-.4.4-.93,0-1.33s-.93-.4-1.33,0l-.87.87-5.87-5.87v-6.49l5.87-5.87.87.87c.4.4.93.4,1.33,0s.4-.93,0-1.33l-2.9-2.9c-.4-.4-.93-.4-1.33,0-.4.4-.4.93,0,1.33l.73.73-4.86,4.86c-.63-1.67-2.23-2.86-4.12-2.86s-3.49,1.19-4.12,2.86l-4.86-4.86.73-.73c.4-.4.4-.93,0-1.33-.4-.4-.93-.4-1.33,0l-2.9,2.9c-.4.4-.4.93,0,1.33s.93.4,1.33,0l.87-.87,5.87,5.87v6.49l-5.87,5.87-.87-.87c-.4-.4-.93-.4-1.33,0s-.4.93,0,1.33l2.9,2.9c.4.4.93.4,1.33,0,.4-.4.4-.93,0-1.33l-.73-.73,4.86-4.86c.63,1.67,2.23,2.86,4.12,2.86s3.49-1.19,4.12-2.86Zm-1.35-1.56c0,1.53-1.24,2.77-2.77,2.77s-2.77-1.24-2.77-2.77v-8c0-1.53,1.24-2.77,2.77-2.77s2.77,1.24,2.77,2.77v8Z"/></g></svg>