<?xml version="1.0" encoding="UTF-8"?><svg id="Calque_2" xmlns="http://www.w3.org/2000/svg" viewBox="0 0 33.22 34.54"><defs><style>.cls-1{fill:#fff;}</style></defs><g id="Calque_1-2"><path class="cls-1" d="m5.89,34.5c-1.47.13-2.88,0-4.23-.38l-1.13-.64c-.52-.28-.75-1.09-.3-1.62.15-.18.37-.44.54-.46,1.04-.34,1.61-1.37,1.6-2.44.24-3.89,3.18-7.02,6.91-7.67.4-.12.71-.31,1.01-.66L26.12,1.82c1.34-1.6,2.93-2.23,4.64-1.55,1.96.74,2.96,2.79,2.22,4.75-.14.34-.2.59-.42.86-1.03,1.41-2.31,2.75-3.43,4.08-4.4,5.23-8.88,10.56-13.2,15.86-.15.18-.37.44-.43.7-1.17,4.63-4.46,7.46-9.6,7.98Zm11.68-14.42l11.05-13.13c.67-.8,1.27-1.51,1.85-2.38.37-.44.41-1.02.11-1.57-.29-.55-.98-.82-1.53-.53-.4.12-.71.31-.94.57-3.43,4.08-6.87,8.16-10.21,12.32l-2.39,2.84,2.05,1.88Zm-13.77,12.05l1.56-.05c3.47.19,6.72-2.22,7.58-5.59.14-.34.12-.5-.14-.73l-2.39-2.02c-.18-.15-.43-.21-.67-.11-2.6.39-4.48,2.44-4.83,5.02.02,1.23-.37,2.42-1.1,3.47Zm10.24-11.99l-1.64,1.95,1.95,1.64,1.64-1.95-1.95-1.64Z"/></g></svg>