<?xml version="1.0" encoding="UTF-8"?><svg id="Calque_2" xmlns="http://www.w3.org/2000/svg" viewBox="0 0 21.21 38.48"><defs><style>.cls-1{fill:#fff;}</style></defs><g id="Calque_1-2"><path class="cls-1" d="m17.77,0H3.36C1.49.08.08,1.49,0,3.36v31.75c.08,1.88,1.49,3.29,3.36,3.36h14.41c1.88,0,3.36-1.49,3.44-3.36V3.36c-.08-1.88-1.56-3.36-3.44-3.36Zm1.41,35.12c-.08.78-.63,1.33-1.41,1.33H3.36c-.7,0-1.33-.63-1.33-1.33V3.36c0-.7.63-1.33,1.33-1.33h3.1c.08,0,.08.08.08.16,0,.55.47,1.02,1.02,1.02h5.87c.55,0,1.02-.47,1.02-1.02h0c0-.08.08-.16.16-.16h3.17c.78,0,1.33.55,1.41,1.33v31.75Z"/></g></svg>