<?xml version="1.0" encoding="UTF-8"?>
<svg id="Calque_2" data-name="Calque 2" xmlns="http://www.w3.org/2000/svg" viewBox="0 0 226.86 226.86">
  <defs>
    <style>
      .cls-1 {
        fill: #fff;
      }
    </style>
  </defs>
  <g id="Calque_1-2" data-name="Calque 1">
    <g>
      <path class="cls-1" d="M93.87,82.33c0,10.17-8.21,18.38-18.38,18.38s-18.38-8.21-18.38-18.38,8.21-18.38,18.38-18.38,18.38,8.21,18.38,18.38"/>
      <path class="cls-1" d="M65.12,163.1h97c6.26,0,10.17-6.45,7.43-11.93l-28.94-54.76c-2.93-5.48-10.37-6.06-14.08-.98l-22.1,31.1c-2.54,3.52-7.43,4.69-11.15,2.35l-5.08-2.93c-3.52-2.15-7.82-1.37-10.56,1.76l-18.58,22.1c-4.69,5.28-.78,13.49,6.45,13.49"/>
      <path class="cls-1" d="M113.43,0c-30.7,0-34.81,0-46.74.78-11.93.39-20.34,2.54-27.58,5.28-7.63,2.93-13.89,6.65-19.95,13.1-6.45,6.45-10.17,12.71-13.1,19.95S1.17,54.56.78,66.69s-.78,15.84-.78,46.74,0,34.81.78,46.74c.39,11.93,2.54,20.34,5.28,27.58,2.93,7.63,6.65,13.89,13.1,19.95,6.45,6.45,12.71,10.17,19.95,13.1s15.45,4.89,27.58,5.28c12.13.39,15.84.78,46.74.78s34.81,0,46.74-.78c11.93-.39,20.34-2.54,27.58-5.28,7.63-2.93,13.89-6.65,19.95-13.1,6.45-6.45,10.17-12.71,13.1-19.95,2.93-7.24,4.89-15.45,5.28-27.58.39-12.13.78-15.84.78-46.74s0-34.81-.78-46.74c-.39-11.93-2.54-20.34-5.28-27.58-2.93-7.63-6.65-13.89-13.1-19.95-6.45-6.45-12.71-10.17-19.95-13.1s-15.45-4.89-27.58-5.28c-12.13-.78-15.84-.78-46.74-.78M113.43,20.53c30.12,0,33.83,0,45.76.39,11.15.39,17.01,2.54,21.12,3.91,5.28,2.15,9.19,4.69,13.1,8.8,3.91,3.91,6.45,7.82,8.8,13.1,1.56,3.91,3.52,9.97,3.91,21.12.39,11.93.39,15.45.39,45.76s0,33.83-.39,45.76c-.39,11.15-2.54,17.01-3.91,21.12-2.15,5.28-4.69,9.19-8.8,13.1-3.91,3.91-7.82,6.45-13.1,8.8-3.91,1.56-9.97,3.52-21.12,3.91-11.93.39-15.45.39-45.76.39s-33.83,0-45.76-.39c-11.15-.39-17.01-2.54-21.12-3.91-5.28-2.15-9.19-4.69-13.1-8.8-3.91-3.91-6.45-7.82-8.8-13.1-1.56-3.91-3.52-9.97-3.91-21.12-.39-11.93-.39-15.45-.39-45.76s0-33.83.39-45.76c.39-11.15,2.54-17.01,3.91-21.12,2.15-5.28,4.69-9.19,8.8-13.1,3.91-3.91,7.82-6.45,13.1-8.8,3.91-1.56,9.97-3.52,21.12-3.91,11.93-.39,15.45-.39,45.76-.39"/>
    </g>
  </g>
</svg>