<?xml version="1.0" encoding="UTF-8"?><svg id="Calque_2" xmlns="http://www.w3.org/2000/svg" viewBox="0 0 31.23 32.96"><defs><style>.cls-1{fill:#fff;}</style></defs><g id="Calque_1-2"><path class="cls-1" d="m25.74,28.16v3.61c.07.56-.28,1.11-.9,1.18H6.67c-.56.07-1.11-.28-1.18-.9v-3.89h-2.08c-1.67.07-3.06-1.11-3.33-2.78-.07-.21-.07-.49-.07-.69v-11.06c0-2.15,1.39-3.47,3.54-3.54h1.95V1.25c0-.83.42-1.25,1.32-1.25h17.62c.97,0,1.32.35,1.32,1.32v8.77h1.95c.42,0,.9,0,1.32.14,1.32.42,2.22,1.6,2.22,2.99v11.82c-.07,1.74-1.53,3.13-3.26,3.13h-2.22Zm0-2.01h2.01c.97,0,1.46-.42,1.46-1.46v-11.06c.14-.69-.35-1.39-1.04-1.53H3.54c-.69-.14-1.39.35-1.53,1.04v11.75c-.07.63.42,1.18,1.04,1.25h2.43v-4.79c0-.97.35-1.32,1.32-1.32h17.82c.56-.07,1.04.42,1.11.97v5.14Zm-2.08,4.79v-8.89H7.57v8.89h16.09Zm0-20.85V2.08H7.57v8s16.09,0,16.09,0Z"/><path class="cls-1" d="m9.38,15.6c0,.56-.42.97-.97,1.04-.56,0-1.04-.49-1.04-1.04.07-.56.49-.97,1.04-.97s.97.42.97.97h0Z"/><path class="cls-1" d="m6.46,15.6c0,.56-.49,1.04-1.04,1.04-.56-.07-.97-.49-.97-1.04.07-.56.49-.97,1.04-.97s.97.42.97.97Z"/><path class="cls-1" d="m13.63,29.32h-3.46c-.5.06-.94-.25-1.01-.76v-.13c-.06-.57.38-.94,1.01-.94h10.99c.5-.13,1.01.19,1.13.69s-.19,1.01-.69,1.13c-.19.06-.31,0-.5,0h-7.46Z"/><path class="cls-1" d="m13.63,25.72h-3.46c-.5.06-.94-.25-1.01-.76v-.13c-.06-.57.38-.94,1.01-.94h10.99c.5-.13,1.01.19,1.13.69s-.19,1.01-.69,1.13c-.19.06-.31,0-.5,0h-7.46Z"/></g></svg>