<?xml version="1.0" encoding="UTF-8"?><svg id="Calque_2" xmlns="http://www.w3.org/2000/svg" viewBox="0 0 35.6 36.2"><defs><style>.cls-1{fill:#fff;}</style></defs><g id="Calque_1-2"><path class="cls-1" d="m35.23,13l-2.2-4.4c-1.3-2.7-3.5-4.8-6.1-6l-4.1-2c-.8-.4-1.6-.6-2.4-.6h-5.3c-.8,0-1.7.2-2.4.6l-4.1,2c-2.7,1.3-4.8,3.5-6.1,6L.33,13c-.5,1-.4,2.1.1,3.1.5.9,1.5,1.5,2.7,1.5h3.8v15.7c0,1.5,1.2,2.9,2.9,2.9h16.3c1.5,0,2.9-1.2,2.9-2.9v-15.7h3.8s.02,0,.03,0c1.71-.02,2.9-1.65,2.72-3.35-.05-.42-.15-.84-.35-1.25ZM20.33,2.1h.4c-.4.9-1.6,1.6-3.1,1.6s-2.7-.7-3.1-1.6h5.8Zm12,13.4h-3.7v-2.8c0-.6-.4-1-1-1s-1,.4-1,1v7.6h0v12.9c0,.4-.3.8-.8.8H9.53c-.4,0-.8-.3-.8-.8v-12.9h0v-7.6c0-.6-.4-1-1-1s-1,.4-1,1v2.8h-3.8c-.8,0-1.3-.8-1-1.5l2.2-4.4c1.1-2.2,3-4.1,5.2-5.1l3.4-1.6c.7,1.7,2.7,3,5,3s4.3-1.2,5-3l3.4,1.6c2.2,1.1,4.1,2.9,5.2,5.1l2.2,4.4c.2.7-.4,1.5-1.2,1.5Z"/></g></svg>