<?xml version="1.0" encoding="UTF-8"?><svg id="Calque_2" xmlns="http://www.w3.org/2000/svg" viewBox="0 0 28.55 36.27"><defs><style>.cls-1{fill:#fff;}</style></defs><g id="Calque_1-2"><path class="cls-1" d="m25.99,10.76c-.36,0-.82.09-1.19.27l-2.01,1c-.36-.64-.91-1-1.64-1.19.55-.73.91-1.64.91-2.74,0-2.55-2.01-4.56-4.56-4.56-1.09,0-2.01.36-2.83,1-.73-2.65-3.19-4.56-6.11-4.56C5.02,0,2.19,2.83,2.19,6.38c0,1.92.82,3.56,2.19,4.74-.82.46-1.37,1.37-1.37,2.37v.27h-.18c-1.55,0-2.83,1.28-2.83,2.83s1.28,2.83,2.83,2.83h.18v.27c0,1.55,1.19,2.74,2.74,2.74h4.33l-4.84,12.06c-.24.59,0,1.42.71,1.66.12.12.36.12.47.12.47,0,.95-.36,1.18-.83l5.22-13h.26l5.22,13c.24.47.71.83,1.18.83.24,0,.36,0,.47-.12.71-.24.95-.95.71-1.66l-4.84-12.06h4.69c1,0,1.82-.55,2.37-1.37l2.01,1.09c.36.18.73.27,1.19.27,1.37,0,2.46-1.09,2.46-2.46v-6.75c-.18-1.37-1.28-2.46-2.55-2.46ZM3.01,17.42h-.18c-.46,0-.82-.36-.82-.82s.36-.82.82-.82h.18v1.64Zm14.5-11.86c1.37,0,2.55,1.19,2.55,2.55s-1.19,2.55-2.55,2.55-2.55-1.19-2.55-2.55,1.09-2.55,2.55-2.55Zm-13.32.82c0-2.37,1.92-4.38,4.38-4.38s4.38,1.92,4.38,4.38-1.92,4.38-4.38,4.38-4.38-2.01-4.38-4.38Zm16.96,8.03v5.2c0,.36-.36.73-.73.73H5.75c-.36,0-.73-.36-.73-.73v-6.2c0-.36.36-.73.73-.73h14.78c.36,0,.64.36.64.73v1Zm5.2,5.56c0,.27-.18.46-.46.46-.09,0-.18,0-.18-.09l-2.28-1.28c-.18-.09-.27-.18-.27-.36v-4.29c0-.18.09-.27.27-.36l2.28-1.19c.09,0,.18-.09.18-.09.27,0,.46.18.46.46v6.75Z"/></g></svg>